<svg width="1024" height="1024" viewBox="0 0 1024 1024" fill="none" xmlns="http://www.w3.org/2000/svg">
<path d="M278.5 702.001H712.998C758.164 702.001 799.825 698.149 829.59 668.739C858.996 638.979 862.502 597.315 862.502 552.5V470.572C862.502 425.757 858.996 384.093 829.59 354.683C799.825 324.923 758.164 321.072 712.998 321.072H278.5C233.685 321.072 191.672 324.923 161.911 354.683C132.501 384.093 129 425.757 129 470.572V552.5C129 597.315 132.501 638.979 161.911 668.739C191.672 698.149 233.335 702.001 278.5 702.001ZM270.798 651.583C245.24 651.583 215.129 648.433 198.674 631.977C182.218 615.521 179.417 585.762 179.417 560.203V463.22C179.417 437.311 182.218 407.901 198.674 391.095C215.129 374.64 245.24 371.839 271.148 371.839H720.701C746.259 371.839 776.371 374.64 792.827 391.095C809.283 407.901 812.08 437.311 812.08 463.22V560.203C812.08 585.762 809.283 615.521 792.827 631.977C776.371 648.433 746.259 651.583 720.701 651.583H270.798ZM903.46 585.061C925.867 583.661 955.983 554.951 955.983 511.536C955.983 468.121 925.867 439.412 903.46 438.011V585.061Z" fill="black"/>
</svg>
